<?xml version="1.0" standalone="no"?>
<!DOCTYPE svg PUBLIC "-//W3C//DTD SVG 20010904//EN"
 "http://www.w3.org/TR/2001/REC-SVG-20010904/DTD/svg10.dtd">
<svg version="1.0" xmlns="http://www.w3.org/2000/svg"
 width="653.000000pt" height="653.000000pt" viewBox="0 0 653.000000 653.000000"
 preserveAspectRatio="xMidYMid meet">
<metadata>
Created by potrace 1.14, written by Peter Selinger 2001-2017
</metadata>
<g transform="translate(0.000000,653.000000) scale(0.100000,-0.100000)"
fill="#000000" stroke="none">
<path d="M545 6500 c3 -5 10 -10 16 -10 5 0 9 5 9 10 0 6 -7 10 -16 10 -8 0
-12 -4 -9 -10z"/>
<path d="M1198 6496 c-13 -7 -36 -11 -53 -10 -16 1 -41 -4 -55 -11 -14 -7 -34
-9 -45 -5 -11 4 -47 7 -80 6 -46 -1 -60 -4 -60 -16 0 -11 13 -15 48 -17 63 -2
74 -13 16 -14 -24 -1 -57 -5 -74 -8 -21 -5 -42 -1 -70 12 -52 26 -100 37 -116
26 -10 -6 -8 -9 9 -9 19 0 21 -3 13 -19 -9 -17 -20 -18 -98 -15 -121 6 -187 5
-259 -2 -56 -6 -62 -4 -67 15 -3 12 0 24 5 28 7 3 8 1 4 -5 -10 -16 36 -16 52
0 28 28 11 33 -125 32 -162 0 -177 -5 -169 -47 3 -16 6 -38 6 -48 0 -15 4 -17
24 -9 45 17 59 -28 31 -105 -7 -22 -19 -39 -25 -37 -6 1 -9 -2 -5 -8 3 -6 11
-8 16 -4 18 11 3 -48 -15 -62 -15 -10 -17 -21 -12 -50 6 -30 4 -39 -13 -51
-14 -9 -21 -25 -21 -45 0 -26 2 -29 15 -18 11 9 15 9 15 1 0 -16 -20 -54 -33
-63 -6 -4 -4 -20 6 -46 9 -22 13 -42 10 -46 -3 -3 7 -10 22 -16 24 -9 27 -14
21 -41 -3 -18 -6 -41 -6 -53 0 -19 -2 -18 -25 9 -27 34 -32 24 -11 -26 9 -21
11 -42 6 -60 -6 -21 -4 -32 11 -45 11 -10 16 -22 11 -28 -5 -6 -16 -32 -26
-58 l-18 -48 31 -45 30 -44 -30 -22 c-17 -12 -27 -24 -21 -28 16 -11 27 -45
26 -81 -3 -97 -5 -105 -13 -92 -6 10 -10 10 -21 -3 -10 -12 -10 -24 0 -61 9
-31 10 -48 3 -52 -7 -4 -7 -16 -2 -29 9 -26 19 -29 37 -11 13 13 19 10 23 -12
3 -18 -21 -72 -37 -83 -19 -11 -27 -82 -14 -108 l12 -22 19 24 18 24 15 -37
c14 -32 14 -40 1 -72 -8 -19 -15 -52 -15 -71 0 -23 -4 -34 -11 -30 -5 4 -9 17
-7 28 3 24 -8 47 -21 47 -13 0 -20 -103 -8 -122 9 -13 7 -21 -6 -36 -27 -29
-31 -72 -10 -87 15 -11 17 -29 16 -141 -1 -71 3 -154 9 -184 13 -61 11 -99 -4
-117 -19 -23 -25 -14 -18 26 8 45 -4 76 -20 51 -10 -15 -30 -100 -30 -125 0
-9 9 -15 21 -15 16 0 19 -4 14 -17 -25 -62 -26 -110 -4 -138 4 -6 6 -60 4
-120 -3 -61 -1 -126 4 -145 l8 -35 12 30 c6 17 14 37 17 45 10 28 23 -11 19
-58 -4 -52 -20 -74 -30 -43 -6 20 -7 20 -30 -5 -22 -23 -24 -54 -5 -54 19 0
14 -36 -7 -57 -19 -18 -21 -26 -12 -55 5 -18 9 -62 10 -98 1 -129 3 -143 27
-167 20 -20 23 -30 17 -66 -4 -23 -15 -49 -26 -59 -24 -21 -24 -27 4 -37 16
-6 24 -4 29 8 5 13 7 13 8 -4 l1 -20 10 20 c8 18 8 18 6 -5 -1 -14 -5 -23 -8
-20 -15 13 -39 -25 -39 -61 0 -32 3 -39 20 -39 13 0 18 -5 14 -15 -4 -8 -15
-15 -26 -15 -10 0 -16 -5 -13 -10 4 -6 1 -26 -5 -46 -9 -27 -9 -38 1 -50 10
-12 8 -19 -12 -40 l-23 -25 19 -36 c11 -20 20 -39 21 -42 0 -3 4 -22 9 -41 l8
-35 8 30 c7 26 14 31 43 33 30 2 35 -1 40 -25 9 -49 10 -116 1 -181 -8 -65
-12 -72 -18 -33 -2 12 -10 26 -17 31 -8 5 -15 29 -16 57 -3 65 -3 63 -13 63
-5 0 -9 -6 -8 -12 1 -49 -3 -53 -24 -21 -12 18 -29 33 -40 33 -23 0 -25 -23
-4 -44 17 -17 20 -42 5 -51 -19 -12 -10 -22 15 -17 14 2 25 9 25 16 1 6 7 -2
14 -19 18 -41 11 -55 -25 -48 -26 5 -29 3 -29 -19 0 -14 11 -45 24 -69 l25
-44 -20 -70 c-20 -75 -24 -115 -10 -115 4 0 11 -16 14 -36 5 -28 1 -44 -13
-65 -23 -31 -27 -99 -7 -99 16 0 35 -38 31 -62 -1 -10 2 -18 6 -18 5 0 11 15
13 33 l4 32 1 -33 c1 -22 6 -32 15 -30 8 3 13 35 15 101 1 53 7 97 12 97 5 0
11 -39 14 -87 3 -49 6 -106 8 -128 2 -22 0 -51 -5 -65 -5 -14 -10 -41 -11 -60
-2 -23 -7 -34 -16 -32 -20 5 -30 -18 -30 -70 0 -62 8 -82 26 -67 12 10 14 -1
14 -64 0 -58 -4 -78 -15 -85 -13 -6 -14 -14 -6 -35 6 -14 8 -36 6 -49 -6 -28
13 -88 27 -88 6 0 8 -9 4 -22 -4 -13 -10 -50 -12 -83 -3 -33 -14 -84 -25 -113
-11 -30 -20 -77 -20 -105 -1 -29 -7 -55 -13 -59 -7 -5 -10 -34 -7 -80 5 -115
5 -150 -2 -195 -4 -26 -2 -43 3 -43 6 0 10 -13 10 -29 0 -39 15 -48 18 -11 2
29 30 105 37 99 2 -2 6 -49 10 -104 4 -55 11 -104 16 -110 12 -12 177 -15 201
-3 9 4 46 1 88 -8 53 -12 74 -14 83 -5 14 14 113 14 197 0 36 -7 80 -11 98
-10 73 5 131 3 207 -7 115 -16 262 -15 268 1 3 9 13 9 48 -1 24 -7 56 -14 72
-14 15 -1 27 -5 27 -10 0 -10 34 -11 44 -1 4 5 56 9 114 10 59 1 123 2 142 2
19 1 42 5 49 10 10 6 27 4 50 -6 46 -21 357 -27 381 -8 37 30 128 53 235 58
61 3 102 3 93 1 -44 -13 -10 -22 80 -21 53 0 120 -2 147 -6 28 -4 64 -7 80 -7
77 -1 326 8 423 15 179 13 263 13 253 1 -11 -14 0 -42 17 -40 6 1 21 2 33 3
12 0 23 10 26 21 3 11 17 23 30 26 19 5 21 9 11 15 -9 6 -5 9 13 9 14 0 34 -9
43 -19 17 -18 17 -20 -1 -30 -14 -8 -11 -9 17 -5 19 4 42 14 51 24 8 9 25 20
36 24 12 4 24 13 27 21 3 8 17 15 31 15 23 0 32 -17 26 -52 0 -5 2 -8 7 -8 4
0 45 -3 92 -6 100 -6 151 -7 221 -4 43 2 50 5 46 21 -4 16 1 17 57 13 76 -6
86 -10 86 -29 0 -10 -10 -15 -27 -16 l-28 0 25 -11 c14 -5 36 -12 50 -14 14
-2 39 -6 57 -9 25 -5 33 -2 38 15 3 11 10 20 15 20 5 0 7 7 4 15 -5 11 1 15
20 15 14 0 26 5 26 10 0 16 37 11 72 -10 18 -11 41 -20 52 -20 15 0 16 -3 6
-15 -10 -12 -10 -15 4 -15 9 0 16 5 16 10 0 16 27 12 34 -5 3 -8 10 -15 15
-15 6 0 8 7 5 15 -7 18 37 21 85 4 17 -6 43 -8 56 -5 21 5 24 11 19 30 -8 35
21 42 48 11 12 -14 30 -25 39 -25 10 0 21 -4 24 -10 10 -16 138 -12 161 5 21
16 99 20 108 6 6 -10 61 -9 72 2 14 14 64 8 64 -9 0 -11 6 -14 23 -8 12 4 58
8 102 10 44 1 94 8 110 14 42 17 106 20 111 5 8 -20 107 -39 132 -26 25 13 97
15 120 2 28 -14 166 -25 158 -12 -10 16 18 14 60 -4 34 -14 52 -13 142 11 23
6 12 24 -15 24 -16 0 -35 5 -43 10 -11 7 -5 8 21 6 20 -2 41 -1 46 3 7 5 16
1997 11 2316 -1 39 0 142 1 230 1 88 1 216 1 285 0 133 0 336 1 435 0 33 0
176 0 318 -1 142 2 264 6 270 4 7 8 48 9 92 1 44 6 109 12 145 6 36 13 127 15
202 3 116 1 136 -10 126 -12 -10 -13 1 -8 65 6 66 4 77 -9 77 -20 0 -18 -17
-20 195 -2 156 1 186 17 223 18 42 18 44 -2 77 -19 33 -19 34 0 47 16 10 21
27 24 77 3 35 7 72 11 83 3 10 1 25 -6 33 -8 9 -8 15 0 20 13 8 3 225 -14 304
-10 46 -9 67 6 135 13 59 16 109 13 186 -3 68 0 121 8 150 14 48 14 59 -3 130
-6 25 -12 51 -13 59 -7 27 -40 42 -82 35 -22 -3 -68 -3 -103 1 -55 6 -61 9
-50 22 11 13 6 15 -42 9 -30 -3 -89 -7 -130 -10 -95 -5 -90 -4 -90 -19 0 -12
-30 -36 -62 -49 -11 -4 -17 -3 -15 4 1 6 -21 16 -49 22 -28 7 -61 19 -73 28
-21 15 -27 15 -68 1 -38 -13 -56 -14 -108 -4 -81 14 -108 14 -103 -1 6 -17
-15 -37 -34 -34 -8 1 -22 9 -31 17 -11 12 -38 16 -109 17 -51 0 -105 5 -120
11 -14 5 -64 10 -110 10 -116 1 -120 0 -107 -16 6 -7 8 -13 5 -13 -22 0 -103
25 -113 35 -17 17 -203 11 -241 -7 -31 -16 -138 -17 -196 -2 -22 5 -27 4 -21
-6 20 -32 -66 -41 -105 -10 -27 21 -70 27 -70 9 0 -8 -4 -8 -12 -2 -15 11 -48
11 -64 1 -6 -4 -27 1 -47 11 -20 10 -35 15 -32 11 6 -10 -13 -23 -38 -27 -10
-2 -15 1 -12 7 3 5 13 10 21 10 8 0 14 3 14 8 0 8 -44 12 -145 13 -183 1 -245
-2 -245 -11 0 -5 7 -10 16 -10 11 0 14 -5 10 -16 -3 -9 -6 -18 -6 -20 0 -2
-25 -4 -55 -4 -58 0 -68 7 -35 28 11 7 17 18 14 27 -10 24 -144 21 -194 -5
-22 -11 -40 -25 -40 -30 0 -6 -9 -10 -20 -10 -23 0 -24 4 -10 31 10 17 7 19
-32 19 -36 0 -39 -2 -25 -12 16 -12 15 -13 -8 -16 -39 -4 -76 -4 -127 1 -34 3
-48 1 -48 -8 0 -19 -88 -28 -106 -10 -8 8 -30 17 -49 21 -19 3 -35 12 -35 19
0 17 -33 25 -55 13 -14 -9 -15 -12 -4 -20 10 -7 4 -7 -16 -3 -39 9 -97 7 -105
-3 -3 -4 -18 -7 -35 -7 -16 1 -45 -7 -62 -18 -18 -10 -33 -14 -33 -9 0 11 -40
10 -59 -2 -6 -4 -9 -11 -6 -16 3 -5 -8 -16 -24 -25 -48 -25 -224 -21 -296 7
-36 13 -61 30 -67 44 -10 22 -23 25 -45 11 -7 -5 -18 -5 -23 -2 -6 4 -32 -4
-58 -17 -36 -18 -65 -23 -124 -24 -42 0 -75 3 -72 7 2 4 -3 9 -11 13 -9 3 -15
0 -15 -9 0 -8 -5 -15 -11 -15 -5 0 -8 4 -5 8 3 4 -38 9 -91 9 -53 1 -98 6
-102 11 -3 6 -50 9 -106 8 -87 -1 -105 2 -135 21 -20 12 -44 21 -54 19 -11 -1
-43 3 -72 10 -41 9 -58 9 -76 0z m1614 -1167 c74 2 78 1 82 -21 24 -113 25
-145 4 -132 -6 4 -8 -1 -6 -12 2 -11 9 -18 16 -17 13 3 26 -19 36 -60 4 -19 3
-26 -4 -22 -5 3 -23 -3 -39 -14 -16 -12 -34 -21 -40 -21 -6 0 -11 -3 -11 -7 0
-5 -3 -19 -6 -33 l-6 -25 21 25 c11 14 21 19 21 13 0 -22 29 -14 46 12 20 30
34 33 27 5 -3 -11 -1 -20 5 -20 5 0 13 -17 17 -37 7 -38 21 -63 35 -63 10 0
26 50 36 110 7 51 16 60 62 60 22 0 32 5 32 15 0 23 -28 30 -56 15 -13 -8 -27
-10 -30 -7 -9 9 15 37 31 37 21 0 38 27 24 36 -7 4 -15 2 -17 -4 -2 -7 -8 -12
-14 -12 -6 0 -7 18 -3 48 14 112 36 150 70 122 11 -9 15 -10 15 -1 0 8 6 7 16
-3 13 -14 17 -14 29 -2 17 17 97 19 107 3 6 -9 12 -9 28 1 27 17 75 15 90 -3
9 -10 9 -15 1 -15 -6 0 -11 -5 -11 -11 0 -6 7 -9 15 -5 19 7 20 -10 2 -21 -17
-10 -30 -43 -17 -43 6 0 10 5 10 10 0 6 5 10 10 10 6 0 10 -9 10 -20 0 -13 -7
-20 -20 -20 -11 0 -20 -4 -20 -10 0 -5 9 -10 20 -10 18 0 20 -7 20 -59 0 -43
-5 -65 -20 -84 -19 -24 -19 -26 -4 -35 16 -9 18 -36 20 -253 1 -164 -1 -248
-9 -257 -7 -9 -7 -16 0 -20 6 -4 11 -27 11 -52 1 -25 2 -110 4 -190 l3 -145
-114 -3 c-62 -1 -118 2 -125 7 -14 12 -11 364 4 369 5 2 10 8 10 13 0 6 -4 7
-10 4 -11 -7 -12 0 -15 118 -3 109 -25 120 -39 19 -3 -25 -12 -52 -18 -60 -8
-9 -11 -37 -10 -73 2 -40 -1 -59 -9 -59 -6 0 -9 -8 -6 -20 3 -11 1 -37 -4 -57
-5 -21 -11 -58 -14 -83 -3 -25 -9 -61 -15 -80 -5 -19 -10 -47 -10 -62 0 -33
-24 -48 -77 -48 -58 0 -71 15 -74 85 -2 33 -11 92 -21 130 -10 39 -19 87 -20
108 -1 20 -5 37 -10 37 -4 0 -8 7 -8 15 0 8 7 15 15 15 16 0 31 43 20 59 -11
19 -33 12 -37 -11 -5 -29 -38 71 -38 114 0 27 -13 37 -24 20 -11 -19 -4 -469
8 -514 13 -47 -32 -62 -174 -59 -67 2 -73 9 -72 87 1 38 1 101 0 139 -4 509
-3 568 11 573 11 4 10 7 -2 14 -13 7 -15 31 -14 138 0 72 4 130 9 130 5 0 7 4
3 9 -3 6 3 15 12 21 16 10 16 11 -4 7 -22 -5 -23 -2 -23 62 0 89 6 94 100 85
41 -4 110 -6 152 -5z m1070 0 c42 1 78 -1 81 -6 9 -15 19 -88 10 -78 -4 6 -14
11 -21 10 -19 0 -67 -48 -53 -53 16 -5 41 17 41 36 0 13 2 13 18 -1 10 -10 22
-14 26 -10 4 5 6 -5 4 -22 -1 -16 -8 -29 -14 -28 -7 1 -10 -6 -7 -18 3 -12 11
-18 19 -15 17 7 46 -86 38 -120 -4 -14 -2 -24 4 -24 6 0 17 -21 24 -47 7 -25
19 -48 26 -51 14 -4 32 37 38 85 9 66 21 83 59 83 28 0 35 4 35 20 0 22 -16
25 -54 10 -26 -10 -31 -4 -20 23 3 8 13 13 23 10 11 -3 21 2 24 11 8 20 -13
33 -24 15 -17 -29 -19 2 -3 77 8 43 18 82 20 86 8 13 42 9 47 -4 4 -10 8 -10
15 0 7 11 10 11 16 -3 5 -15 8 -15 28 -1 30 21 94 21 106 0 8 -14 10 -14 25 0
18 19 82 21 93 4 4 -6 2 -14 -4 -16 -21 -7 -13 -20 8 -15 11 3 20 1 20 -3 0
-5 -9 -15 -20 -22 -11 -7 -20 -19 -20 -28 0 -13 3 -14 13 -5 14 11 27 5 27
-11 0 -5 -12 -14 -27 -20 -25 -10 -26 -12 -8 -16 11 -2 23 -9 27 -15 11 -17
-4 -121 -18 -130 -18 -10 -18 -37 0 -37 11 0 14 -41 15 -226 0 -124 3 -229 5
-233 3 -4 -2 -20 -10 -35 -17 -35 -17 -36 1 -36 15 0 16 -24 2 -47 -4 -6 -3
-23 2 -36 11 -29 17 -280 6 -296 -7 -12 -213 -15 -232 -3 -8 5 -11 61 -12 186
0 156 3 182 17 194 15 12 15 13 1 9 -16 -5 -20 18 -23 152 -1 26 -6 46 -13 48
-7 3 -13 -1 -14 -9 0 -7 -2 -20 -4 -28 -2 -8 -6 -31 -10 -50 -3 -19 -13 -43
-22 -52 -12 -13 -13 -21 -5 -31 13 -15 5 -79 -10 -88 -6 -4 -7 -12 -3 -19 4
-6 2 -37 -3 -68 -16 -82 -33 -183 -36 -216 -4 -36 -20 -46 -77 -46 -59 0 -73
16 -76 90 -1 32 -12 95 -23 141 -12 45 -19 91 -17 100 3 10 -1 23 -9 30 -17
14 -18 29 -3 29 13 0 35 22 34 35 -1 31 -45 50 -45 19 0 -32 -18 -2 -25 42
-14 94 -16 101 -34 89 -11 -6 -7 -415 5 -507 5 -45 4 -48 -21 -58 -42 -16
-200 -13 -215 5 -8 10 -10 46 -7 118 2 57 1 125 -3 151 -4 26 -3 49 2 52 4 3
6 9 3 14 -2 4 -5 106 -6 225 0 159 3 220 11 225 9 6 9 9 0 12 -10 3 -13 35
-12 123 1 145 3 156 22 173 13 11 12 12 -7 7 -21 -6 -22 -3 -21 57 1 98 5 102
96 93 43 -5 111 -7 154 -6z m-2247 -21 c0 -6 6 -13 14 -16 10 -3 12 0 8 11 -5
13 0 16 23 14 34 -2 36 -6 15 -33 -20 -27 -19 -40 3 -21 10 10 24 17 30 17 7
0 9 7 5 18 -6 14 -4 15 9 5 8 -7 18 -10 21 -6 4 3 7 -6 7 -20 0 -15 5 -27 10
-27 6 0 10 7 10 15 0 22 18 18 25 -5 3 -11 13 -20 20 -20 17 0 45 -38 45 -61
0 -9 -11 -21 -25 -27 -19 -9 -25 -9 -25 1 0 7 -9 13 -20 13 -11 0 -20 -6 -20
-12 0 -17 27 -37 40 -29 5 3 14 -5 19 -18 15 -38 28 -40 35 -5 6 31 18 32 22
1 3 -21 -23 -46 -40 -40 -16 6 -59 -40 -51 -54 4 -5 18 -8 32 -7 14 2 28 -3
30 -10 4 -9 -2 -11 -21 -6 -15 3 -26 2 -26 -4 0 -12 37 -23 55 -15 8 2 11 11
8 19 -3 8 0 14 6 14 6 0 12 -17 12 -37 4 -126 15 -115 -108 -107 -60 3 -112
10 -117 15 -5 4 -10 46 -11 92 -2 96 -14 123 -60 143 -48 20 -104 0 -126 -45
-19 -39 -31 -199 -27 -376 2 -74 -2 -95 -16 -95 -24 0 -30 -21 -7 -27 12 -3
22 -14 22 -27 1 -11 3 -43 4 -71 7 -123 21 -158 69 -175 76 -26 100 -3 112
105 13 118 8 134 -40 139 -15 1 -32 8 -37 13 -16 16 -21 151 -6 160 17 11 341
13 348 2 4 -7 3 -190 -4 -554 -2 -90 -2 -90 -27 -87 -14 1 -42 2 -62 3 -21 0
-44 7 -52 15 -11 10 -16 11 -19 1 -3 -8 -14 -2 -29 17 l-25 29 -31 -23 c-57
-42 -149 -54 -277 -35 -44 7 -52 12 -108 71 -58 62 -73 161 -72 473 1 219 2
244 18 256 15 11 16 13 2 18 -18 8 -16 47 5 64 12 10 13 14 2 21 -9 6 -12 20
-8 43 4 19 8 50 9 69 5 51 25 77 66 84 34 5 58 -2 34 -11 -7 -3 -13 -9 -13
-15 0 -6 7 -7 16 -4 10 4 22 -1 29 -10 11 -16 12 -16 18 0 9 23 -41 66 -78 66
-27 0 -28 1 -13 16 13 13 19 14 38 2 20 -12 24 -11 37 10 9 12 22 22 30 22 8
0 20 15 28 33 8 17 14 26 15 19 0 -25 35 -57 63 -59 15 -1 27 3 27 9 0 7 13 8
35 5 41 -7 50 3 30 29 -20 26 -19 32 8 36 25 4 32 1 32 -14z m726 8 c14 -6 16
-24 13 -129 -4 -155 -4 -248 1 -472 10 -534 10 -626 -5 -635 -8 -5 -69 -9
-134 -7 -144 2 -133 -13 -129 197 8 391 3 774 -13 962 -6 75 -6 78 17 87 26
10 224 7 250 -3z m2952 -4 c17 -15 29 -69 29 -139 0 -78 -14 -84 -188 -76
-108 4 -147 3 -159 -7 -11 -9 -15 -34 -15 -102 0 -94 14 -140 47 -152 9 -4 70
-4 134 0 109 6 117 5 122 -12 10 -37 1 -202 -12 -218 -10 -12 -37 -15 -137
-14 -119 1 -126 0 -141 -21 -11 -16 -23 -22 -39 -18 -28 5 -43 -11 -23 -23 7
-5 16 -7 20 -4 4 2 10 -4 14 -14 14 -30 13 -64 -1 -69 -18 -7 -18 -23 0 -23 8
0 12 -7 10 -17 -3 -10 5 -33 16 -51 20 -32 21 -32 82 -29 35 2 97 0 138 -5 41
-5 92 -10 113 -12 22 -2 43 -9 48 -17 12 -20 7 -189 -6 -203 -7 -7 -58 -11
-140 -11 l-129 0 -24 35 c-36 54 -50 57 -67 16 -8 -19 -20 -38 -25 -41 -17
-11 -253 -6 -264 5 -5 5 -9 38 -9 72 3 174 8 264 16 269 5 4 6 13 1 20 -11 19
-15 437 -3 445 5 3 5 13 1 22 -5 9 -9 89 -10 177 -1 88 -4 170 -6 182 -9 45
12 48 311 48 216 0 284 -3 296 -13z m-3767 -17 c-9 -19 -16 -23 -41 -18 -28 6
-44 18 -45 34 0 4 22 7 49 7 47 0 48 -1 37 -23z m244 -1454 c309 1 372 -1 408
-15 50 -18 105 -48 110 -58 2 -5 10 -8 18 -8 8 0 14 -4 14 -8 0 -4 14 -16 32
-26 141 -84 232 -222 263 -400 9 -49 19 -94 22 -100 4 -6 9 -51 10 -101 2 -49
6 -138 9 -197 4 -70 2 -130 -6 -170 -7 -35 -14 -74 -17 -88 -11 -64 -34 -153
-48 -185 -23 -56 -94 -153 -117 -158 -13 -4 -19 -11 -15 -21 8 -20 -94 -106
-152 -129 -45 -17 -46 -17 -60 3 -16 23 -31 26 -31 6 0 -10 -16 -14 -66 -14
-77 0 -220 -42 -272 -79 -51 -38 -74 -93 -78 -192 -3 -47 -7 -106 -11 -131
-12 -91 -4 -179 37 -410 9 -53 8 -89 -5 -109 -9 -15 -100 -30 -215 -36 -58 -2
-121 -7 -140 -10 -19 -4 -73 1 -119 9 -64 11 -90 21 -111 41 -40 38 -52 121
-30 205 13 49 18 83 19 118 1 15 7 22 20 22 28 0 30 8 14 75 -7 33 -16 125
-19 205 -3 80 -9 159 -13 175 -10 40 -4 151 10 177 8 15 8 22 -1 28 -7 4 -13
61 -16 166 -6 177 -6 206 -5 249 1 17 -2 77 -5 135 -6 103 -5 106 20 133 28
30 26 52 -3 42 -12 -3 -17 1 -18 17 -1 12 1 27 6 33 4 5 8 21 9 34 0 13 8 32
18 42 15 17 15 21 -10 63 -30 51 -32 75 -10 121 14 30 14 40 1 97 -11 43 -15
111 -14 218 2 151 3 156 29 197 24 37 32 42 70 45 24 2 57 -1 73 -5 17 -4 194
-7 395 -6z m1625 -47 c94 -4 123 -9 133 -22 8 -10 12 -52 12 -119 0 -66 5
-116 15 -140 19 -50 21 -76 11 -147 -8 -54 -7 -60 16 -81 20 -19 27 -37 33
-92 4 -37 15 -86 24 -108 17 -39 26 -141 23 -252 -1 -42 2 -53 14 -53 12 0 15
-12 14 -57 -2 -81 -3 -78 25 -91 33 -15 62 -15 71 0 5 7 9 46 11 86 1 40 5 78
9 83 3 6 8 37 10 69 3 33 11 79 18 102 7 24 14 73 15 110 1 38 6 81 11 98 5
16 7 30 5 30 -2 0 3 19 11 43 8 23 19 74 24 112 6 39 12 79 14 90 3 11 5 25 5
32 1 6 10 15 21 18 23 7 27 35 5 35 -46 0 -31 104 22 150 37 33 36 50 -3 50
-28 0 -32 15 -6 29 14 7 26 5 47 -9 28 -19 29 -19 58 6 28 23 33 24 192 24
146 0 164 -2 170 -17 3 -10 11 -67 17 -128 5 -60 11 -122 13 -138 2 -15 -1
-30 -6 -33 -14 -8 -11 -24 5 -24 19 0 23 -16 19 -73 -2 -27 4 -75 12 -107 8
-32 14 -75 14 -96 -1 -22 6 -82 14 -134 9 -52 19 -120 23 -150 3 -30 13 -84
21 -120 7 -36 16 -80 20 -97 6 -34 23 -43 40 -20 18 23 63 182 68 237 4 59 38
221 55 265 5 14 10 40 10 57 0 16 6 56 14 87 8 31 17 72 20 91 3 19 15 44 28
55 42 35 52 53 39 69 -7 9 -8 22 -3 37 6 14 5 35 0 51 -10 28 6 166 20 180 10
10 154 13 207 5 22 -4 67 -9 100 -12 182 -18 180 -18 183 -48 2 -15 -4 -50
-13 -77 -14 -42 -21 -50 -41 -50 -27 0 -31 -17 -9 -46 8 -10 15 -29 15 -42 0
-19 -4 -22 -19 -17 -27 8 -34 -8 -22 -51 9 -33 -4 -132 -34 -254 -8 -36 -35
-149 -95 -405 -17 -71 -39 -168 -50 -215 -11 -47 -30 -130 -41 -185 -11 -55
-25 -120 -30 -145 -5 -25 -18 -72 -28 -105 -11 -33 -22 -78 -25 -100 -3 -22
-10 -62 -15 -90 -6 -27 -13 -72 -15 -100 -6 -73 -33 -232 -50 -295 -36 -131
-50 -209 -48 -265 1 -34 -4 -67 -11 -75 -19 -25 -68 -41 -117 -39 -25 1 -60
-1 -77 -5 -28 -6 -32 -5 -27 8 7 19 -30 23 -42 5 -4 -7 -15 -1 -29 17 l-23 29
-7 -27 c-6 -24 -10 -26 -32 -17 -13 5 -29 6 -34 3 -19 -11 -107 7 -116 24 -4
10 -10 96 -14 192 -3 96 -11 209 -18 250 -6 41 -14 93 -17 115 -3 22 -10 69
-15 105 -6 36 -12 100 -16 143 -4 66 -2 81 13 98 17 18 16 20 -6 44 -15 16
-28 49 -37 97 -13 71 -34 118 -53 118 -22 0 -42 -78 -55 -215 -3 -22 -7 -56
-11 -75 -3 -19 -8 -76 -9 -125 -2 -50 -13 -138 -25 -195 -12 -58 -23 -113 -25
-123 -2 -9 -7 -22 -10 -28 -4 -6 -8 -29 -10 -52 -2 -23 -8 -67 -14 -97 -18
-98 -25 -134 -37 -215 -10 -68 -10 -68 -234 -73 -230 -4 -244 0 -255 65 -4 21
-13 58 -21 82 -8 25 -14 67 -14 95 0 28 -5 69 -10 91 -6 22 -15 76 -20 120 -6
44 -15 103 -20 130 -6 28 -15 84 -20 125 -11 82 -16 112 -25 140 -3 10 -8 31
-10 46 -17 113 -25 156 -40 209 -9 33 -20 101 -25 150 -11 120 -38 272 -51
298 -13 23 -28 89 -69 310 -17 86 -40 177 -52 202 -20 41 -20 46 -6 62 15 17
15 23 -2 83 -10 36 -27 92 -38 125 -11 33 -22 101 -25 152 -7 118 2 132 86
138 33 2 60 5 62 7 2 2 25 2 52 0 26 -1 102 -5 168 -8z m2695 -3676 c0 -4 -9
-8 -20 -8 -11 0 -20 4 -20 9 0 6 9 9 20 8 11 -1 20 -5 20 -9z"/>
<path d="M2575 5300 c-4 -7 -1 -18 7 -26 13 -13 15 -12 13 5 -2 26 -11 36 -20
21z"/>
<path d="M3385 5280 c-3 -5 -1 -10 4 -10 6 0 11 5 11 10 0 6 -2 10 -4 10 -3 0
-8 -4 -11 -10z"/>
<path d="M2677 5263 c-4 -3 -7 -11 -7 -17 0 -6 5 -5 12 2 6 6 9 14 7 17 -3 3
-9 2 -12 -2z"/>
<path d="M3203 5256 c2 -6 15 -10 28 -10 13 1 35 2 48 3 41 2 13 15 -35 16
-28 1 -43 -2 -41 -9z"/>
<path d="M2843 5234 c-27 -27 -28 -34 -8 -34 15 0 39 35 33 49 -2 4 -13 -2
-25 -15z"/>
<path d="M2880 5246 c0 -9 5 -16 10 -16 6 0 10 4 10 9 0 6 -4 13 -10 16 -5 3
-10 -1 -10 -9z"/>
<path d="M2629 5223 c-13 -16 -12 -17 4 -4 16 13 21 21 13 21 -2 0 -10 -8 -17
-17z"/>
<path d="M3262 5205 c3 -27 24 -36 22 -10 -3 32 -4 35 -15 35 -6 0 -9 -11 -7
-25z"/>
<path d="M3340 5214 c0 -8 5 -12 10 -9 6 3 10 1 10 -4 0 -6 5 -11 10 -11 17 0
11 14 -10 28 -17 10 -20 10 -20 -4z"/>
<path d="M3161 5211 c-8 -5 -11 -16 -8 -25 10 -25 27 -19 27 9 0 28 0 28 -19
16z"/>
<path d="M2634 5199 c-3 -6 -1 -16 5 -22 6 -6 11 -19 11 -28 0 -13 -6 -16 -22
-11 -14 3 -19 2 -14 -6 4 -7 3 -12 -3 -12 -7 0 -7 -9 1 -26 10 -21 16 -24 37
-19 14 4 28 11 29 16 2 5 12 9 23 9 17 0 18 3 9 20 -6 11 -8 25 -5 30 4 6 -1
13 -9 16 -8 3 -18 14 -21 25 -7 21 -30 25 -41 8z"/>
<path d="M3220 5199 c0 -9 9 -24 20 -34 26 -23 26 -8 0 25 -14 18 -20 21 -20
9z"/>
<path d="M2730 5160 c0 -19 3 -21 12 -12 9 9 9 15 0 24 -9 9 -12 7 -12 -12z"/>
<path d="M2820 5165 c0 -8 7 -15 15 -15 9 0 12 6 9 15 -4 8 -10 15 -15 15 -5
0 -9 -7 -9 -15z"/>
<path d="M3380 5160 c0 -5 5 -10 11 -10 5 0 7 5 4 10 -3 6 -8 10 -11 10 -2 0
-4 -4 -4 -10z"/>
<path d="M2769 5151 c10 -6 10 -10 1 -16 -9 -6 -9 -9 1 -15 7 -5 20 -3 30 3
16 10 15 12 -8 24 -28 14 -46 17 -24 4z"/>
<path d="M3140 5126 c0 -10 8 -14 25 -12 33 4 33 20 0 24 -17 2 -25 -1 -25
-12z"/>
<path d="M3380 5100 c0 -6 7 -10 15 -10 8 0 15 2 15 4 0 2 -7 6 -15 10 -8 3
-15 1 -15 -4z"/>
<path d="M3192 5091 c2 -7 7 -12 11 -12 12 1 9 15 -3 20 -7 2 -11 -2 -8 -8z"/>
<path d="M2597 5063 c-4 -3 -7 -13 -7 -20 0 -10 7 -12 23 -7 31 9 34 14 17 24
-18 12 -25 12 -33 3z"/>
<path d="M2740 5060 c0 -5 5 -10 11 -10 5 0 7 5 4 10 -3 6 -8 10 -11 10 -2 0
-4 -4 -4 -10z"/>
<path d="M2670 5030 c0 -5 5 -10 10 -10 6 0 10 5 10 10 0 6 -4 10 -10 10 -5 0
-10 -4 -10 -10z"/>
<path d="M2702 5008 c-19 -19 -14 -30 8 -18 11 6 20 15 20 20 0 14 -14 12 -28
-2z"/>
<path d="M2820 5010 c0 -5 5 -10 10 -10 6 0 10 5 10 10 0 6 -4 10 -10 10 -5 0
-10 -4 -10 -10z"/>
<path d="M2705 4955 c-25 -21 -28 -26 -15 -35 27 -18 36 -10 31 29 -2 7 2 10
8 6 6 -3 11 1 11 9 0 20 0 20 -35 -9z"/>
<path d="M3365 4970 c-3 -5 1 -10 9 -10 9 0 16 5 16 10 0 6 -4 10 -9 10 -6 0
-13 -4 -16 -10z"/>
<path d="M2770 4959 c0 -5 5 -7 10 -4 6 3 10 8 10 11 0 2 -4 4 -10 4 -5 0 -10
-5 -10 -11z"/>
<path d="M2870 4956 c0 -9 5 -16 10 -16 6 0 10 4 10 9 0 6 -4 13 -10 16 -5 3
-10 -1 -10 -9z"/>
<path d="M2810 4951 c0 -6 -9 -11 -20 -11 -13 0 -20 -7 -20 -20 0 -17 3 -19
18 -11 29 15 45 38 32 46 -5 3 -10 1 -10 -4z"/>
<path d="M3365 4890 c3 -5 11 -10 16 -10 6 0 7 5 4 10 -3 6 -11 10 -16 10 -6
0 -7 -4 -4 -10z"/>
<path d="M3035 4770 c3 -5 8 -10 11 -10 2 0 4 5 4 10 0 6 -5 10 -11 10 -5 0
-7 -4 -4 -10z"/>
<path d="M3320 4626 c0 -9 5 -16 10 -16 6 0 10 4 10 9 0 6 -4 13 -10 16 -5 3
-10 -1 -10 -9z"/>
<path d="M2876 4561 c-4 -7 -5 -15 -2 -18 9 -9 19 4 14 18 -4 11 -6 11 -12 0z"/>
<path d="M2640 4550 c0 -5 7 -10 15 -10 8 0 15 5 15 10 0 6 -7 10 -15 10 -8 0
-15 -4 -15 -10z"/>
<path d="M3215 4530 c-3 -5 -1 -10 4 -10 6 0 11 5 11 10 0 6 -2 10 -4 10 -3 0
-8 -4 -11 -10z"/>
<path d="M3330 4510 c-13 -8 -12 -10 3 -10 9 0 17 5 17 10 0 12 -1 12 -20 0z"/>
<path d="M2701 4441 c-8 -5 -11 -16 -7 -26 6 -17 8 -17 25 1 26 27 14 45 -18
25z"/>
<path d="M2748 4427 c-14 -21 -14 -22 8 -22 16 0 24 6 24 17 0 27 -17 30 -32
5z"/>
<path d="M3075 4430 c3 -5 8 -10 11 -10 2 0 4 5 4 10 0 6 -5 10 -11 10 -5 0
-7 -4 -4 -10z"/>
<path d="M3410 4430 c0 -5 5 -10 10 -10 6 0 10 5 10 10 0 6 -4 10 -10 10 -5 0
-10 -4 -10 -10z"/>
<path d="M2912 4414 c4 -21 22 -23 26 -1 2 10 -3 17 -13 17 -10 0 -15 -6 -13
-16z"/>
<path d="M2955 4420 c3 -5 13 -10 21 -10 8 0 12 5 9 10 -3 6 -13 10 -21 10 -8
0 -12 -4 -9 -10z"/>
<path d="M2620 4401 c0 -11 4 -21 9 -21 18 0 21 18 6 30 -13 10 -15 9 -15 -9z"/>
<path d="M3025 4400 c3 -5 8 -10 11 -10 2 0 4 5 4 10 0 6 -5 10 -11 10 -5 0
-7 -4 -4 -10z"/>
<path d="M2670 4384 c0 -8 5 -12 10 -9 6 4 8 11 5 16 -9 14 -15 11 -15 -7z"/>
<path d="M3654 5295 c-7 -17 3 -35 19 -34 9 0 9 2 1 5 -7 3 -10 14 -7 24 6 23
-5 27 -13 5z"/>
<path d="M3757 5263 c-4 -3 -7 -11 -7 -17 0 -6 5 -5 12 2 6 6 9 14 7 17 -3 3
-9 2 -12 -2z"/>
<path d="M4278 5252 c3 -8 13 -11 26 -8 11 3 31 6 44 6 13 0 21 4 17 9 -3 5
-25 9 -49 8 -32 -1 -42 -6 -38 -15z"/>
<path d="M3699 5223 c-13 -16 -12 -17 4 -4 16 13 21 21 13 21 -2 0 -10 -8 -17
-17z"/>
<path d="M4339 5228 c-8 -33 -6 -47 6 -52 11 -4 15 2 15 19 0 13 -4 27 -10 30
-5 3 -10 5 -11 3z"/>
<path d="M4420 5210 c12 -23 25 -26 36 -8 5 8 2 9 -9 5 -11 -4 -17 -1 -17 8 0
8 -5 15 -10 15 -7 0 -7 -6 0 -20z"/>
<path d="M4230 5205 c-12 -14 -6 -35 9 -35 12 0 21 39 11 45 -4 3 -13 -2 -20
-10z"/>
<path d="M3710 5191 c0 -11 5 -23 10 -26 15 -10 12 -25 -6 -25 -8 0 -21 -6
-29 -13 -11 -11 -10 -17 5 -37 l18 -24 41 19 c35 17 39 23 34 45 -3 14 -9 27
-13 30 -4 3 -12 15 -19 28 -14 27 -41 29 -41 3z"/>
<path d="M4290 5204 c0 -17 28 -49 36 -41 4 4 -2 17 -14 30 -12 12 -22 17 -22
11z"/>
<path d="M3800 5159 c0 -11 5 -17 10 -14 6 3 10 13 10 21 0 8 -4 14 -10 14 -5
0 -10 -9 -10 -21z"/>
<path d="M3892 5169 c2 -7 10 -15 17 -17 8 -3 12 1 9 9 -2 7 -10 15 -17 17 -8
3 -12 -1 -9 -9z"/>
<path d="M4450 5160 c0 -5 5 -10 10 -10 6 0 10 5 10 10 0 6 -4 10 -10 10 -5 0
-10 -4 -10 -10z"/>
<path d="M3843 5141 c-2 -26 18 -32 42 -14 19 15 19 15 -7 11 -19 -4 -25 -1
-21 9 3 7 1 13 -4 13 -5 0 -9 -9 -10 -19z"/>
<path d="M4213 5128 c5 -17 49 -17 55 0 2 8 -7 12 -28 12 -21 0 -30 -4 -27
-12z"/>
<path d="M4450 5099 c0 -5 5 -7 10 -4 6 3 10 8 10 11 0 2 -4 4 -10 4 -5 0 -10
-5 -10 -11z"/>
<path d="M4266 5091 c-3 -5 1 -11 9 -15 8 -3 15 -1 15 4 0 13 -18 22 -24 11z"/>
<path d="M3994 5068 c-5 -9 -24 -23 -41 -32 -26 -13 -33 -23 -32 -44 l0 -27
11 25 c6 15 12 20 15 13 8 -22 31 -14 53 17 15 21 19 34 12 46 -8 15 -10 15
-18 2z"/>
<path d="M3675 5055 c-3 -8 -7 -23 -10 -32 -5 -15 -4 -16 12 -1 10 8 25 17 33
20 11 4 10 7 -8 17 -18 10 -23 9 -27 -4z"/>
<path d="M3810 5060 c0 -5 5 -10 10 -10 6 0 10 5 10 10 0 6 -4 10 -10 10 -5 0
-10 -4 -10 -10z"/>
<path d="M3745 5030 c-3 -5 -2 -10 4 -10 5 0 13 5 16 10 3 6 2 10 -4 10 -5 0
-13 -4 -16 -10z"/>
<path d="M3771 5007 c-6 -8 -8 -17 -4 -20 7 -8 33 11 33 24 0 13 -16 11 -29
-4z"/>
<path d="M3901 5004 c0 -11 3 -14 6 -6 3 7 2 16 -1 19 -3 4 -6 -2 -5 -13z"/>
<path d="M3776 4957 c-26 -21 -27 -24 -11 -37 14 -11 18 -11 25 0 4 7 6 20 2
28 -3 10 -1 13 6 8 6 -3 13 -2 16 3 13 20 -12 19 -38 -2z"/>
<path d="M4435 4970 c-3 -5 1 -10 9 -10 8 0 18 5 21 10 3 6 -1 10 -9 10 -8 0
-18 -4 -21 -10z"/>
<path d="M3845 4960 c-3 -5 -1 -10 4 -10 6 0 11 5 11 10 0 6 -2 10 -4 10 -3 0
-8 -4 -11 -10z"/>
<path d="M3940 4960 c0 -13 18 -22 24 -11 3 5 -1 11 -9 15 -8 3 -15 1 -15 -4z"/>
<path d="M3880 4950 c0 -5 -9 -10 -19 -10 -13 0 -18 -6 -16 -17 2 -10 4 -20 4
-22 2 -8 51 42 51 51 0 4 -4 8 -10 8 -5 0 -10 -4 -10 -10z"/>
<path d="M4440 4890 c0 -5 5 -10 10 -10 6 0 10 5 10 10 0 6 -4 10 -10 10 -5 0
-10 -4 -10 -10z"/>
<path d="M4110 4781 c0 -6 4 -13 10 -16 6 -3 7 1 4 9 -7 18 -14 21 -14 7z"/>
<path d="M4396 4615 c4 -8 10 -12 15 -9 11 6 2 24 -11 24 -5 0 -7 -7 -4 -15z"/>
<path d="M3950 4556 c0 -9 5 -16 10 -16 6 0 10 4 10 9 0 6 -4 13 -10 16 -5 3
-10 -1 -10 -9z"/>
<path d="M3715 4550 c3 -5 13 -10 21 -10 8 0 12 5 9 10 -3 6 -13 10 -21 10 -8
0 -12 -4 -9 -10z"/>
<path d="M4405 4510 c-3 -5 -1 -10 4 -10 6 0 11 5 11 10 0 6 -2 10 -4 10 -3 0
-8 -4 -11 -10z"/>
<path d="M4345 4470 c-3 -5 -1 -10 4 -10 6 0 11 5 11 10 0 6 -2 10 -4 10 -3 0
-8 -4 -11 -10z"/>
<path d="M3765 4432 c-9 -25 6 -34 26 -16 10 9 19 21 19 25 0 13 -39 6 -45 -9z"/>
<path d="M3823 4427 c-10 -21 -9 -23 11 -22 12 2 20 8 18 16 -6 27 -19 29 -29
6z"/>
<path d="M4145 4430 c3 -5 11 -10 16 -10 6 0 7 5 4 10 -3 6 -11 10 -16 10 -6
0 -7 -4 -4 -10z"/>
<path d="M4485 4430 c3 -5 8 -10 11 -10 2 0 4 5 4 10 0 6 -5 10 -11 10 -5 0
-7 -4 -4 -10z"/>
<path d="M3986 4422 c-2 -4 0 -14 5 -22 8 -13 10 -13 18 0 10 15 6 30 -9 30
-5 0 -11 -4 -14 -8z"/>
<path d="M4030 4420 c0 -5 10 -10 23 -10 18 0 19 2 7 10 -19 13 -30 13 -30 0z"/>
<path d="M3697 4414 c-8 -8 3 -34 14 -34 11 0 12 27 0 34 -4 3 -11 3 -14 0z"/>
<path d="M4100 4400 c0 -5 5 -10 11 -10 5 0 7 5 4 10 -3 6 -8 10 -11 10 -2 0
-4 -4 -4 -10z"/>
<path d="M3745 4390 c-3 -5 -1 -10 4 -10 6 0 11 5 11 10 0 6 -2 10 -4 10 -3 0
-8 -4 -11 -10z"/>
<path d="M1624 5276 c-10 -25 -1 -36 19 -22 15 12 15 15 2 26 -12 10 -16 9
-21 -4z"/>
<path d="M1742 5251 c-7 -4 -2 -15 13 -29 15 -15 26 -19 30 -12 9 15 -28 50
-43 41z"/>
<path d="M1400 5230 c0 -5 5 -10 10 -10 6 0 10 5 10 10 0 6 -4 10 -10 10 -5 0
-10 -4 -10 -10z"/>
<path d="M1645 5213 c-20 -15 -19 -15 5 -9 14 3 28 6 33 6 4 0 7 5 7 10 0 15
-22 12 -45 -7z"/>
<path d="M1843 5203 c-18 -6 -16 -23 1 -23 17 0 30 16 19 23 -5 2 -14 2 -20 0z"/>
<path d="M1730 5192 c0 -12 19 -26 26 -19 2 2 -2 10 -11 17 -9 8 -15 8 -15 2z"/>
<path d="M1553 5165 c0 -31 21 -28 25 3 2 14 -2 22 -11 22 -9 0 -14 -10 -14
-25z"/>
<path d="M1630 5177 c0 -22 27 -28 42 -9 10 12 10 14 0 8 -7 -4 -19 -2 -27 4
-12 10 -15 9 -15 -3z"/>
<path d="M1437 5164 c-8 -9 11 -44 23 -44 6 0 10 11 10 25 0 23 -18 34 -33 19z"/>
<path d="M1745 5140 c-4 -6 1 -18 11 -26 18 -13 18 -15 1 -25 -21 -12 -13 -31
10 -22 12 5 15 2 10 -9 -8 -21 3 -30 20 -17 19 17 16 47 -7 59 -11 6 -18 15
-15 19 2 5 -2 14 -9 20 -10 9 -16 9 -21 1z"/>
<path d="M1313 5055 c0 -14 3 -25 8 -25 5 0 9 4 9 9 0 5 3 16 6 25 4 10 1 16
-9 16 -9 0 -14 -10 -14 -25z"/>
<path d="M1715 5060 c3 -5 11 -10 16 -10 6 0 7 5 4 10 -3 6 -11 10 -16 10 -6
0 -7 -4 -4 -10z"/>
<path d="M1267 5016 c-6 -16 19 -30 28 -16 7 11 -2 30 -15 30 -4 0 -10 -6 -13
-14z"/>
<path d="M1713 5023 c-18 -7 -16 -53 1 -53 17 0 32 38 19 50 -4 4 -14 5 -20 3z"/>
<path d="M1790 4979 c0 -5 5 -7 10 -4 6 3 10 8 10 11 0 2 -4 4 -10 4 -5 0 -10
-5 -10 -11z"/>
<path d="M1360 4971 c0 -17 18 -21 24 -6 3 9 0 15 -9 15 -8 0 -15 -4 -15 -9z"/>
<path d="M1820 4940 c31 -24 42 -25 38 -3 -2 10 -15 18 -33 20 l-30 3 25 -20z"/>
<path d="M1400 4860 c0 -5 7 -10 15 -10 8 0 15 5 15 10 0 6 -7 10 -15 10 -8 0
-15 -4 -15 -10z"/>
<path d="M1430 4521 c0 -6 5 -13 10 -16 6 -3 10 1 10 9 0 9 -4 16 -10 16 -5 0
-10 -4 -10 -9z"/>
<path d="M1346 4484 c-4 -10 -1 -14 6 -12 15 5 23 28 10 28 -5 0 -13 -7 -16
-16z"/>
<path d="M1395 4491 c-3 -5 -1 -12 5 -16 5 -3 10 1 10 9 0 18 -6 21 -15 7z"/>
<path d="M1290 4410 c0 -5 5 -10 10 -10 6 0 10 5 10 10 0 6 -4 10 -10 10 -5 0
-10 -4 -10 -10z"/>
<path d="M1525 4240 c3 -5 13 -10 21 -10 8 0 12 5 9 10 -3 6 -13 10 -21 10 -8
0 -12 -4 -9 -10z"/>
<path d="M4775 4710 c-3 -5 -1 -10 4 -10 6 0 11 5 11 10 0 6 -2 10 -4 10 -3 0
-8 -4 -11 -10z"/>
<path d="M4955 4580 c-3 -5 1 -10 9 -10 8 0 18 5 21 10 3 6 -1 10 -9 10 -8 0
-18 -4 -21 -10z"/>
<path d="M4870 4479 c0 -5 5 -7 10 -4 6 3 10 8 10 11 0 2 -4 4 -10 4 -5 0 -10
-5 -10 -11z"/>
<path d="M4740 4449 c0 -5 5 -7 10 -4 6 3 10 8 10 11 0 2 -4 4 -10 4 -5 0 -10
-5 -10 -11z"/>
<path d="M5035 4300 c3 -5 14 -10 23 -10 15 0 15 2 2 10 -20 13 -33 13 -25 0z"/>
<path d="M1805 3750 c-4 -6 -4 -10 -1 -10 2 0 11 -3 20 -6 9 -3 16 -2 16 4 0
14 -28 23 -35 12z"/>
<path d="M1620 3564 c0 -8 5 -12 10 -9 6 3 10 10 10 16 0 5 -4 9 -10 9 -5 0
-10 -7 -10 -16z"/>
<path d="M1467 3533 c-12 -12 -7 -31 10 -37 25 -10 36 8 15 27 -10 9 -22 14
-25 10z"/>
<path d="M1520 3441 c0 -13 29 -35 37 -28 7 8 -15 37 -28 37 -5 0 -9 -4 -9 -9z"/>
<path d="M1280 3415 c-19 -22 -8 -25 13 -3 9 10 13 18 8 18 -5 0 -14 -7 -21
-15z"/>
<path d="M1382 3398 c-8 -8 -6 -16 10 -30 12 -10 28 -16 36 -13 7 3 16 5 18 5
2 0 4 9 4 19 0 29 -45 42 -68 19z"/>
<path d="M1623 3395 c-3 -9 -3 -18 0 -21 9 -9 27 6 27 22 0 19 -19 18 -27 -1z"/>
<path d="M1895 3313 c-36 -9 -64 -34 -74 -66 -6 -19 -9 -138 -8 -299 3 -247 4
-269 22 -288 23 -25 95 -60 125 -60 58 0 117 64 140 151 7 24 19 52 27 61 15
16 14 20 -11 44 -25 25 -26 32 -26 128 0 124 -25 262 -53 293 -11 13 -36 25
-56 29 -20 3 -43 7 -51 9 -8 1 -24 0 -35 -2z"/>
<path d="M1425 3300 c-11 -17 5 -32 21 -19 7 6 11 15 8 20 -7 12 -21 11 -29
-1z"/>
<path d="M2194 3266 c-8 -22 -2 -27 16 -16 12 7 12 12 3 21 -10 10 -14 9 -19
-5z"/>
<path d="M1296 3253 c-3 -3 -3 -10 0 -14 7 -12 34 -11 34 0 0 11 -26 22 -34
14z"/>
<path d="M2570 3006 c0 -9 5 -16 10 -16 6 0 10 4 10 9 0 6 -4 13 -10 16 -5 3
-10 -1 -10 -9z"/>
<path d="M2136 2932 c-3 -6 -1 -14 5 -17 15 -10 25 3 12 16 -7 7 -13 7 -17 1z"/>
<path d="M1360 2840 c0 -5 5 -10 10 -10 6 0 10 5 10 10 0 6 -4 10 -10 10 -5 0
-10 -4 -10 -10z"/>
<path d="M2265 2710 c-10 -16 14 -49 41 -56 38 -10 38 -1 0 34 -20 17 -38 27
-41 22z"/>
<path d="M2471 2486 c-8 -10 -9 -16 -1 -21 5 -3 13 1 16 10 9 22 -1 29 -15 11z"/>
<path d="M4910 3661 c0 -17 18 -21 24 -6 3 9 0 15 -9 15 -8 0 -15 -4 -15 -9z"/>
<path d="M5316 3662 c-2 -4 -1 -14 5 -22 7 -12 9 -10 9 8 0 23 -5 28 -14 14z"/>
<path d="M3387 3634 c-9 -10 2 -24 19 -24 8 0 14 7 14 15 0 15 -21 21 -33 9z"/>
<path d="M5030 3626 c0 -17 27 -24 60 -16 l25 6 -22 12 c-29 16 -63 15 -63 -2z"/>
<path d="M5231 3596 c-11 -13 -11 -20 4 -42 13 -21 19 -24 26 -13 12 19 11 32
-4 53 -12 16 -14 16 -26 2z"/>
<path d="M4425 3580 c4 -6 11 -8 16 -5 14 9 11 15 -7 15 -8 0 -12 -5 -9 -10z"/>
<path d="M3482 3554 c1 -9 9 -19 16 -22 9 -3 13 2 10 14 -1 9 -9 19 -16 22 -9
3 -13 -2 -10 -14z"/>
<path d="M5000 3511 c0 -16 30 -33 46 -27 13 5 14 9 4 21 -13 16 -50 21 -50 6z"/>
<path d="M3410 3500 c0 -5 5 -10 10 -10 6 0 10 5 10 10 0 6 -4 10 -10 10 -5 0
-10 -4 -10 -10z"/>
<path d="M5116 3475 c4 -8 10 -15 15 -15 5 0 9 7 9 15 0 8 -7 15 -15 15 -9 0
-12 -6 -9 -15z"/>
<path d="M3296 3343 c-12 -12 -5 -23 14 -23 11 0 20 4 20 9 0 11 -26 22 -34
14z"/>
<path d="M3367 3343 c-12 -11 -8 -23 7 -23 7 0 19 7 26 15 10 12 9 15 -7 15
-11 0 -23 -3 -26 -7z"/>
<path d="M3496 3295 c4 -8 10 -12 15 -9 11 6 2 24 -11 24 -5 0 -7 -7 -4 -15z"/>
<path d="M3970 3300 c0 -5 7 -10 16 -10 8 0 12 5 9 10 -3 6 -10 10 -16 10 -5
0 -9 -4 -9 -10z"/>
<path d="M4030 3260 c0 -5 7 -10 16 -10 8 0 12 5 9 10 -3 6 -10 10 -16 10 -5
0 -9 -4 -9 -10z"/>
<path d="M4150 3263 c-35 -7 -44 -18 -26 -36 13 -13 21 -13 46 -4 18 7 29 18
28 26 -3 17 -14 20 -48 14z"/>
<path d="M3973 3160 c-13 -5 -23 -17 -23 -25 0 -24 31 -14 41 13 5 12 7 22 6
21 -1 0 -12 -4 -24 -9z"/>
<path d="M3993 3084 c-7 -19 11 -39 26 -30 16 10 13 33 -4 40 -9 3 -18 -1 -22
-10z"/>
<path d="M3906 3081 c-3 -5 1 -14 9 -21 13 -10 15 -9 15 9 0 21 -14 28 -24 12z"/>
<path d="M4090 3061 c0 -13 29 -35 37 -28 7 8 -15 37 -28 37 -5 0 -9 -4 -9 -9z"/>
<path d="M4274 2996 c-4 -10 -2 -22 4 -28 8 -8 13 -7 18 6 4 10 2 22 -4 28 -8
8 -13 7 -18 -6z"/>
<path d="M3486 2955 c-4 -12 -1 -16 11 -13 18 3 21 20 5 26 -5 1 -12 -4 -16
-13z"/>
<path d="M4132 2943 c4 -22 38 -30 38 -10 0 8 -7 18 -16 21 -23 9 -26 8 -22
-11z"/>
<path d="M4060 2925 c0 -8 9 -15 20 -15 11 0 20 2 20 5 0 2 -9 9 -20 15 -16 9
-20 8 -20 -5z"/>
<path d="M4335 2829 c-10 -15 3 -25 16 -12 7 7 7 13 1 17 -6 3 -14 1 -17 -5z"/>
<path d="M4762 2708 c7 -19 38 -22 38 -4 0 10 -9 16 -21 16 -12 0 -19 -5 -17
-12z"/>
<path d="M4510 2561 c0 -5 7 -12 16 -15 14 -5 15 -4 4 9 -14 17 -20 19 -20 6z"/>
<path d="M3530 2515 c0 -8 4 -15 9 -15 5 0 11 7 15 15 3 9 0 15 -9 15 -8 0
-15 -7 -15 -15z"/>
<path d="M3867 2403 c-4 -3 -7 -11 -7 -17 0 -6 5 -5 12 2 6 6 9 14 7 17 -3 3
-9 2 -12 -2z"/>
<path d="M4375 2320 c-3 -5 1 -10 10 -10 9 0 13 5 10 10 -3 6 -8 10 -10 10 -2
0 -7 -4 -10 -10z"/>
<path d="M4945 2290 c3 -5 11 -10 16 -10 6 0 7 5 4 10 -3 6 -11 10 -16 10 -6
0 -7 -4 -4 -10z"/>
<path d="M3573 2269 c-15 -15 -17 -69 -3 -69 11 0 23 41 18 65 -2 13 -5 14
-15 4z"/>
<path d="M3886 2231 c-3 -5 0 -11 8 -14 8 -3 17 1 20 9 6 15 -19 20 -28 5z"/>
<path d="M3500 2195 c0 -8 5 -15 10 -15 6 0 10 7 10 15 0 8 -4 15 -10 15 -5 0
-10 -7 -10 -15z"/>
<path d="M3597 2163 c-4 -3 -7 -11 -7 -17 0 -6 5 -5 12 2 6 6 9 14 7 17 -3 3
-9 2 -12 -2z"/>
<path d="M3876 2103 c-11 -11 -6 -23 9 -23 8 0 15 4 15 9 0 13 -16 22 -24 14z"/>
<path d="M3943 2103 c-15 -5 -18 -43 -4 -43 5 0 14 7 21 15 14 17 3 35 -17 28z"/>
<path d="M3555 2080 c-3 -5 -1 -10 4 -10 6 0 11 5 11 10 0 6 -2 10 -4 10 -3 0
-8 -4 -11 -10z"/>
<path d="M3675 2030 c3 -5 10 -10 16 -10 5 0 9 5 9 10 0 6 -7 10 -16 10 -8 0
-12 -4 -9 -10z"/>
<path d="M4535 1840 c3 -5 11 -10 16 -10 6 0 7 5 4 10 -3 6 -11 10 -16 10 -6
0 -7 -4 -4 -10z"/>
<path d="M4744 1795 c-4 -8 0 -22 7 -31 12 -14 14 -14 25 1 7 9 10 23 7 31 -7
19 -32 18 -39 -1z"/>
<path d="M4693 1766 c3 -8 1 -17 -6 -20 -9 -3 -9 -5 0 -5 7 -1 17 8 23 19 9
16 8 20 -6 20 -10 0 -14 -5 -11 -14z"/>
<path d="M3496 1361 c-3 -5 1 -11 9 -15 8 -3 15 -1 15 4 0 13 -18 22 -24 11z"/>
<path d="M3655 1230 c-8 -13 -1 -24 14 -19 6 3 7 10 2 18 -6 10 -10 10 -16 1z"/>
<path d="M532 6473 c-28 -3 -42 -8 -39 -16 3 -10 27 -13 85 -8 6 1 12 8 12 16
0 8 -3 14 -7 13 -5 -1 -27 -3 -51 -5z"/>
<path d="M3110 6476 c0 -2 7 -6 15 -10 8 -3 15 -1 15 4 0 6 -7 10 -15 10 -8 0
-15 -2 -15 -4z"/>
<path d="M110 941 c0 -6 4 -13 10 -16 6 -3 7 1 4 9 -7 18 -14 21 -14 7z"/>
<path d="M100 813 c0 -22 2 -25 10 -13 13 20 13 40 0 40 -5 0 -10 -12 -10 -27z"/>
<path d="M3225 79 c-4 -11 -5 -23 -2 -25 6 -6 37 25 37 37 0 18 -29 9 -35 -12z"/>
<path d="M2660 82 c0 -9 47 -8 57 1 3 4 -8 7 -25 7 -18 0 -32 -4 -32 -8z"/>
<path d="M3014 82 c-11 -2 -23 -8 -28 -13 -6 -5 27 -9 82 -9 51 0 92 4 92 9 0
9 -112 19 -146 13z"/>
<path d="M2908 73 c7 -3 16 -2 19 1 4 3 -2 6 -13 5 -11 0 -14 -3 -6 -6z"/>
<path d="M264 43 c10 -11 56 -11 50 -1 -3 4 -17 8 -31 8 -15 0 -23 -3 -19 -7z"/>
<path d="M2368 39 c-19 -12 3 -29 38 -29 23 0 34 5 34 14 0 8 6 16 13 19 6 2
-7 4 -31 3 -24 0 -48 -4 -54 -7z"/>
<path d="M3430 30 c0 -6 7 -10 15 -10 8 0 15 2 15 4 0 2 -7 6 -15 10 -8 3 -15
1 -15 -4z"/>
<path d="M5618 13 c7 -3 16 -2 19 1 4 3 -2 6 -13 5 -11 0 -14 -3 -6 -6z"/>
</g>
</svg>
